<?xml version="1.0" encoding="UTF-8"?>
<svg xmlns="http://www.w3.org/2000/svg" xmlns:xlink="http://www.w3.org/1999/xlink" width="15px" height="15px" viewBox="0 0 15 15" version="1.1">
<g id="surface1">
<path style="fill-rule:nonzero;fill:rgb(100%,100%,100%);fill-opacity:1;stroke-width:1;stroke-linecap:butt;stroke-linejoin:miter;stroke:rgb(100%,100%,100%);stroke-opacity:1;stroke-miterlimit:4;" d="M 250.593655 154.343692 L 100.632774 4.382811 C 94.789027 -1.460937 85.249968 -1.460937 79.40622 4.382811 C 73.562472 10.226559 73.562472 19.765618 79.40622 25.609365 L 218.796792 164.999938 L 79.40622 304.39051 C 73.562472 310.234258 73.562472 319.773317 79.40622 325.617064 C 82.328094 328.538938 86.19528 329.999875 90.062466 329.999875 C 93.843715 329.999875 97.710901 328.538938 100.632774 325.617064 L 250.593655 175.570246 C 253.429592 172.820247 255.062404 168.953061 255.062404 164.999938 C 255.062404 161.046814 253.429592 157.179628 250.593655 154.343692 Z M 250.593655 154.343692 " transform="matrix(0.0454546,0,0,0.0454546,0,0)"/>
</g>
</svg>
